<?xml version="1.0" encoding="utf-8"?>
<!-- Generator: Adobe Illustrator 26.3.1, SVG Export Plug-In . SVG Version: 6.00 Build 0)  -->
<svg version="1.1" id="Capa_1" xmlns="http://www.w3.org/2000/svg" xmlns:xlink="http://www.w3.org/1999/xlink" x="0px" y="0px"
	 viewBox="0 0 150 116.1" style="enable-background:new 0 0 150 116.1;" xml:space="preserve">
<style type="text/css">
	.st0{fill:#FFFFFF;}
	.st1{fill:none;stroke:#FFFFFF;stroke-width:8.7277;stroke-miterlimit:10;}
	.st2{fill:#17AA67;}
	.st3{fill:#010202;}
	.st4{fill:#FFDC16;}
</style>
<g>
	<path class="st0" d="M131.6,8.6H18.4c-6.9,0-12.6,5.6-12.6,12.6v75.3c0,6.9,5.6,12.6,12.6,12.6h113.3c7,0,12.6-5.6,12.6-12.6V21.2
		C144.2,14.3,138.6,8.6,131.6,8.6"/>
	<path class="st1" d="M131.6,8.6H18.4c-6.9,0-12.6,5.6-12.6,12.6v75.3c0,6.9,5.6,12.6,12.6,12.6h113.3c7,0,12.6-5.6,12.6-12.6V21.2
		C144.2,14.3,138.6,8.6,131.6,8.6"/>
	<path class="st2" d="M131.6,8.6H18.4c-6.9,0-12.6,5.6-12.6,12.6v75.3c0,6.9,5.6,12.6,12.6,12.6h113.3c7,0,12.6-5.6,12.6-12.6V21.2
		C144.2,14.3,138.6,8.6,131.6,8.6"/>
	<path class="st3" d="M144.2,81.4c0,4.8-4,8.8-8.8,8.8H14.6c-4.9,0-8.8-4-8.8-8.8V36.3c0-4.8,4-8.8,8.8-8.8h120.8
		c4.9,0,8.8,4,8.8,8.8V81.4z"/>
	<path class="st4" d="M121.9,62.4h-8.3V49c0-1,0.1-2.2,1-3c0.9-0.7,2-1,3.1-1h0h0c1.1,0,2.2,0.3,3.1,1c0.9,0.8,1,2,1,3V62.4z
		 M128.5,39.5c-1.8-1.6-5-2.4-9.5-2.4h-0.1h-2.4h-0.1c-4.5,0-7.7,0.8-9.5,2.4c-2,1.7-3,4.7-3,9v31c0,0.2,0.1,0.3,0.2,0.4
		c0.1,0.1,0.3,0.2,0.4,0.2h8.5c0.1,0,0.3-0.1,0.4-0.2c0.1-0.1,0.2-0.2,0.2-0.4v-9h8.3v9c0,0.2,0.1,0.3,0.2,0.4
		c0.1,0.1,0.3,0.2,0.4,0.2h8.5c0.2,0,0.3,0,0.4-0.2c0.1-0.1,0.2-0.2,0.2-0.4v-31C131.6,44.2,130.5,41.2,128.5,39.5 M41.6,39.5
		c-1.8-1.6-5-2.4-9.5-2.4c0,0,0,0-0.1,0h-2.4h-0.1c-4.5,0-7.7,0.8-9.5,2.4c-2,1.7-3,4.7-3,9v20.4v0c0,4.3,1,7.3,3,9
		c1.8,1.6,5,2.4,9.5,2.4h0h2.5h0c4.5,0,7.7-0.8,9.5-2.4c2-1.7,3-4.7,3-9v0v-6c0-0.1-0.1-0.3-0.2-0.4c-0.1-0.1-0.3-0.2-0.4-0.2h-8.5
		c-0.2,0-0.3,0.1-0.4,0.2c-0.1,0.1-0.2,0.3-0.2,0.4v6.2c0,0,0,0.1,0,0.1c-0.1,0.8-0.3,1.6-1,2.2c-0.9,0.7-2,1-3.1,1h0h0h0
		c-1.1,0-2.2-0.3-3.1-1c-0.7-0.6-0.9-1.4-1-2.2c0,0,0-0.1,0-0.1v-0.6l0-19.6c0-1,0.1-2.2,1-3c0.9-0.7,2-1,3.1-1h0.1
		c1.1,0,2.2,0.3,3.1,1c0.9,0.8,1,2,1,3v5.3c0,0.2,0.1,0.3,0.2,0.4c0.1,0.1,0.3,0.2,0.4,0.2h8.5c0.2,0,0.3-0.1,0.4-0.2
		c0.1-0.1,0.2-0.3,0.2-0.4v-5.7C44.7,44.2,43.7,41.2,41.6,39.5 M99.2,37.3H80.9c-0.2,0-0.3,0.1-0.4,0.2c-0.1,0.1-0.2,0.3-0.2,0.4
		v41.7c0,0.2,0.1,0.3,0.2,0.4c0.1,0.1,0.3,0.2,0.4,0.2h18.3c0.2,0,0.3,0,0.4-0.2c0.1-0.1,0.2-0.2,0.2-0.4V73c0-0.2-0.1-0.3-0.2-0.4
		c-0.1-0.1-0.3-0.2-0.4-0.2H90V62.4h9.1c0.2,0,0.3-0.1,0.4-0.2c0.1-0.1,0.2-0.3,0.2-0.4v-6.5c0-0.2-0.1-0.3-0.2-0.4
		c-0.1-0.1-0.3-0.2-0.4-0.2H90v-9.9h9.1c0.2,0,0.3-0.1,0.4-0.2c0.1-0.1,0.2-0.3,0.2-0.4v-6.3c0-0.1-0.1-0.3-0.2-0.4
		C99.5,37.4,99.3,37.3,99.2,37.3 M66.4,50.7c0,1.3-0.4,2.3-1.1,3c-0.8,0.7-1.9,1-3.5,1h-3.5v-9.8h3.5h0c1.5,0,2.7,0.4,3.4,1.1
		c0.8,0.7,1.1,1.9,1.1,3.3v0v0V50.7L66.4,50.7z M75,54.4c0.4-0.6,0.7-1.5,0.9-2.6c0.2-1.1,0.3-2.3,0.3-3.5v-0.1c0-1.4-0.1-3-0.4-4.5
		c-0.3-1.5-0.7-2.8-1.2-3.5c-1.6-2-5-2.9-10.4-2.9H64H49.2c-0.2,0-0.3,0.1-0.4,0.2c-0.1,0.1-0.2,0.3-0.2,0.4v41.7
		c0,0.2,0.1,0.3,0.2,0.4c0.1,0.1,0.3,0.2,0.4,0.2h8.6c0.2,0,0.3,0,0.4-0.2c0.1-0.1,0.2-0.2,0.2-0.4V62.4h3c2.3,0,3.7,0.4,4.4,1.4
		c0.4,0.7,0.6,1.9,0.6,3.8v12c0,0.2,0.1,0.3,0.2,0.4c0.1,0.1,0.3,0.2,0.4,0.2h8.6c0.1,0,0.3,0,0.4-0.2c0.1-0.1,0.2-0.2,0.2-0.4V68.2
		v0c0-2.6-0.5-4.6-1.4-6c-1.1-1.6-2.9-3-5.7-4.1C72.1,57.3,74.1,56,75,54.4"/>
</g>
</svg>
